<?xml version="1.0" encoding="utf-8"?>
<!-- Generator: Adobe Illustrator 24.1.2, SVG Export Plug-In . SVG Version: 6.00 Build 0)  -->
<svg version="1.1" id="Слой_1" xmlns="http://www.w3.org/2000/svg" xmlns:xlink="http://www.w3.org/1999/xlink" x="0px" y="0px"
	 viewBox="0 0 1500 1500" style="enable-background:new 0 0 1500 1500;" xml:space="preserve">
<style type="text/css">
	.st0{fill:#FFFFFF;}
</style>
<g>
	<g>
		<g>
			<path class="st0" d="M421.9,679.5v20.9h-6.3v-15h-55.9v-64h6.7v58.2h38.7v-58.2h6.7v58.2H421.9z"/>
			<path class="st0" d="M412.7,771v5.9h-45.3v-64h43.9v5.9h-37.1v22.8h33.1v5.8h-33.1V771H412.7z"/>
			<path class="st0" d="M408.3,810.2c4.6,3.9,7,9.3,7,16.1c0,6.8-2.3,12.2-7,16.1c-4.6,3.9-11,5.8-19.2,5.8h-17.2v20.2h-6.8v-64h24
				C397.2,804.3,403.6,806.3,408.3,810.2z M403.4,838c3.4-2.8,5-6.7,5-11.8c0-5.2-1.7-9.2-5-11.9c-3.4-2.8-8.2-4.2-14.5-4.2h-17v32
				h17C395.2,842.2,400.1,840.8,403.4,838z"/>
			<path class="st0" d="M386.7,930.5H372v29.4h-6.6v-64h6.6v28.7h14.6l21.7-28.7h7.3l-23.8,31.1l25.2,32.9h-7.8L386.7,930.5z"/>
			<path class="st0" d="M411.4,1023.7c2.3,2.7,3.5,6.1,3.5,10.4c0,5.6-2,9.8-5.9,12.8c-3.9,3-9.7,4.5-17.3,4.5h-28.4v-64h26.6
				c6.8,0,12.2,1.4,16,4.2c3.8,2.8,5.8,6.9,5.8,12.2c0,3.6-0.9,6.6-2.7,9.1s-4.4,4.3-7.7,5.5C405.7,1019.2,409.1,1021,411.4,1023.7z
				 M370,1016.3h19.6c4.9,0,8.7-1,11.4-3c2.7-2,4-4.9,4-8.8c0-3.8-1.3-6.8-4-8.8c-2.7-2-6.5-3-11.4-3H370V1016.3z M408.2,1033.6
				c0-8.1-5.5-12.1-16.6-12.1H370v24.4h21.7C402.7,1046,408.2,1041.8,408.2,1033.6z"/>
			<path class="st0" d="M404.5,1125.7h-35.7l-7.7,17.1h-7l29.3-64h6.7l29.3,64h-7.1L404.5,1125.7z M402,1120.3l-15.4-34.4
				l-15.4,34.4H402z"/>
		</g>
		<g>
			<polygon class="st0" points="581,1143.1 501.4,1143.1 501.4,487.4 581,528.8 			"/>
			<polygon class="st0" points="702.1,1143.1 622.4,1143.1 622.4,550 702.1,591.4 			"/>
			<polygon class="st0" points="823.2,1143.1 743.5,1143.1 743.5,612.6 823.2,653.9 			"/>
			<polygon class="st0" points="944.2,1143.1 864.6,1143.1 864.6,675.2 944.2,716.5 			"/>
			<polygon class="st0" points="1065.3,1143.1 985.6,1143.1 985.6,737.7 1065.3,779 			"/>
			<polygon class="st0" points="1186.4,1143.1 1106.7,1143.1 1106.7,800.3 1186.4,841.6 			"/>
			<polygon class="st0" points="1307.4,1143.1 1227.8,1143.1 1227.8,862.9 1307.4,904.1 			"/>
			<polygon class="st0" points="1307.4,1143.1 1227.8,1143.1 1227.8,862.9 1307.4,904.1 			"/>
			<polygon class="st0" points="1307.4,1143.1 1227.8,1143.1 1227.8,862.9 1307.4,904.1 			"/>
			<polygon class="st0" points="1307.4,1143.1 1227.8,1143.1 1227.8,862.9 1307.4,904.1 			"/>
			<polygon class="st0" points="1307.4,1143.1 1227.8,1143.1 1227.8,862.9 1307.4,904.1 			"/>
			<polygon class="st0" points="1307.4,1143.1 1227.8,1143.1 1227.8,862.9 1307.4,904.1 			"/>
			<polygon class="st0" points="1307.4,1143.1 1227.8,1143.1 1227.8,862.9 1307.4,904.1 			"/>
		</g>
		<polygon class="st0" points="192.5,1143.1 272.1,1143.1 272.1,680.8 192.5,748.7 		"/>
		<polygon class="st0" points="492.6,293.2 413.9,293.2 413.9,195.1 359.6,195.1 359.6,293.2 280.9,293.2 280.9,347.6 359.6,347.6 
			397.9,347.6 359.6,413.9 359.6,585.5 413.9,539.5 413.9,347.6 492.6,347.6 		"/>
		<g>
			<path class="st0" d="M577.7,1249h-17v37.5h-8.4V1249h-17.1l-25,37.5h-10.1l28.1-42.2l-26-39.6h9.4l23.5,36.7h17.2v-36.7h8.4v36.7
				h17l23.6-36.7h9.4l-26,39.6l28.1,42.2h-10.1L577.7,1249z"/>
			<path class="st0" d="M626.6,1204.7h8.5v67.8l52.4-67.8h7.8v81.9h-8.5v-67.7l-52.4,67.7h-7.8V1204.7z"/>
			<path class="st0" d="M784.5,1251.2c3,3.4,4.4,7.8,4.4,13.3c0,7.1-2.5,12.6-7.5,16.4c-5,3.8-12.4,5.7-22.2,5.7H723v-81.9h34
				c8.7,0,15.6,1.8,20.5,5.4c4.9,3.6,7.4,8.8,7.4,15.6c0,4.6-1.2,8.5-3.5,11.6s-5.6,5.5-9.8,7.1
				C777.2,1245.5,781.5,1247.8,784.5,1251.2z M731.5,1241.7h25c6.3,0,11.2-1.3,14.6-3.9c3.4-2.6,5.1-6.3,5.1-11.2s-1.7-8.7-5.1-11.2
				c-3.4-2.6-8.2-3.9-14.6-3.9h-25V1241.7z M780.4,1263.8c0-10.3-7.1-15.4-21.2-15.4h-27.7v31.2h27.7
				C773.3,1279.6,780.4,1274.4,780.4,1263.8z"/>
			<path class="st0" d="M824.4,1281.8c-6.6-3.6-11.7-8.6-15.4-14.9c-3.7-6.3-5.6-13.4-5.6-21.3c0-7.9,1.9-15,5.6-21.3
				c3.7-6.3,8.8-11.3,15.4-14.9c6.6-3.6,13.9-5.4,22-5.4c8.1,0,15.4,1.8,21.9,5.4c6.5,3.6,11.6,8.6,15.4,14.9
				c3.7,6.4,5.6,13.5,5.6,21.3c0,7.9-1.9,15-5.6,21.3c-3.7,6.4-8.9,11.3-15.4,14.9c-6.5,3.6-13.8,5.4-21.9,5.4
				C838.3,1287.2,831,1285.4,824.4,1281.8z M864,1275.1c5.2-2.9,9.3-7,12.3-12.2c3-5.2,4.4-11,4.4-17.4c0-6.4-1.5-12.2-4.4-17.4
				c-3-5.2-7.1-9.2-12.3-12.2c-5.2-2.9-11.1-4.4-17.5-4.4c-6.5,0-12.3,1.5-17.6,4.4c-5.3,2.9-9.4,7-12.4,12.2
				c-3,5.2-4.5,11-4.5,17.4c0,6.4,1.5,12.2,4.5,17.4c3,5.2,7.1,9.2,12.4,12.2c5.3,2.9,11.1,4.4,17.6,4.4
				C852.9,1279.5,858.8,1278.1,864,1275.1z"/>
			<path class="st0" d="M900,1193.9c-1-0.9-1.5-2.1-1.5-3.6c0-1.4,0.5-2.6,1.5-3.6c1-1,2.2-1.5,3.6-1.5c1.3,0,2.5,0.5,3.5,1.5
				c1,1,1.5,2.2,1.5,3.6s-0.5,2.6-1.5,3.6c-1,1-2.2,1.5-3.6,1.5S900.9,1194.9,900,1193.9z M909.6,1204.7h8.7v81.9h-8.7V1204.7z
				 M920.8,1193.9c-1-1-1.5-2.2-1.5-3.6s0.5-2.6,1.5-3.6c1-1,2.2-1.5,3.5-1.5c1.4,0,2.6,0.5,3.6,1.5c1,1,1.5,2.2,1.5,3.6
				c0,1.5-0.5,2.7-1.5,3.6c-1,0.9-2.2,1.4-3.6,1.4C922.9,1195.3,921.7,1194.8,920.8,1193.9z"/>
			<path class="st0" d="M1044.4,1204.7v81.9h-8.5v-37.8h-51.2v37.8H976v-81.9h8.7v36.5h51.2v-36.5H1044.4z"/>
			<path class="st0" d="M1124.4,1264.7h-45.6l-9.8,21.9h-9l37.4-81.9h8.5l37.4,81.9h-9.1L1124.4,1264.7z M1121.2,1257.6l-19.6-44
				l-19.6,44H1121.2z"/>
			<path class="st0" d="M1234.4,1279v25.8h-8.1v-18.4h-71.4l-0.1,18.4h-8.1l0.1-25.8h4.1c5.4-0.3,9.1-4.6,11.2-12.8
				c2.1-8.2,3.4-19.9,3.9-35l0.9-26.5h55.2v74.4H1234.4z M1170.9,1262.9c-1.5,8.1-4.1,13.5-7.7,16.2h50.4v-66.9h-39.2l-0.7,19.9
				C1173.4,1244.5,1172.4,1254.8,1170.9,1262.9z"/>
			<path class="st0" d="M1252.1,1204.7h8.5v81.9h-8.5V1204.7z"/>
			<path class="st0" d="M1278.1,1193.9c-1-0.9-1.5-2.1-1.5-3.6c0-1.4,0.5-2.6,1.5-3.6c1-1,2.2-1.5,3.6-1.5c1.3,0,2.5,0.5,3.5,1.5
				c1,1,1.5,2.2,1.5,3.6s-0.5,2.6-1.5,3.6c-1,1-2.2,1.5-3.6,1.5S1279.1,1194.9,1278.1,1193.9z M1287.8,1204.7h8.7v81.9h-8.7V1204.7z
				 M1298.9,1193.9c-1-1-1.5-2.2-1.5-3.6s0.5-2.6,1.5-3.6c1-1,2.2-1.5,3.5-1.5c1.4,0,2.6,0.5,3.6,1.5c1,1,1.5,2.2,1.5,3.6
				c0,1.5-0.5,2.7-1.5,3.6c-1,0.9-2.2,1.4-3.6,1.4C1301.1,1195.3,1299.9,1194.8,1298.9,1193.9z"/>
		</g>
	</g>
</g>
</svg>
